<?xml version="1.0" encoding="UTF-8" standalone="no"?>
<svg width="20px" height="20px" viewBox="0 0 20 20" version="1.1" xmlns="http://www.w3.org/2000/svg" xmlns:xlink="http://www.w3.org/1999/xlink">
    <!-- Generator: Sketch 43.2 (39069) - http://www.bohemiancoding.com/sketch -->
    <title>copy</title>
    <desc>Created with Sketch.</desc>
    <defs></defs>
    <g id="Page-1" stroke="none" stroke-width="1" fill="none" fill-rule="evenodd">
        <g id="copy">
            <g transform="translate(3.000000, 2.000000)">
                <path d="M2,1.00684547 C2,0.450780073 2.45303631,0 2.99703014,0 L10,0 L10,2.34995317 C10,3.26124887 10.7336617,4 11.6500468,4 L14,4 L14,13.0046024 C14,13.5543453 13.544239,14 12.9975267,14 L3.00247329,14 C2.44882258,14 2,13.5500512 2,12.9931545 L2,1.00684547 Z" id="Rectangle-4" fill="#4C97FF"></path>
                <circle id="Oval" fill="#575E75" opacity="0.5" cx="0.5" cy="3.5" r="1"></circle>
                <circle id="Oval-Copy" fill="#575E75" opacity="0.5" cx="0.5" cy="5.5" r="1"></circle>
                <circle id="Oval-Copy-2" fill="#575E75" opacity="0.5" cx="0.5" cy="7.5" r="1"></circle>
                <circle id="Oval-Copy-3" fill="#575E75" opacity="0.5" cx="0.5" cy="9.5" r="1"></circle>
                <circle id="Oval-Copy-4" fill="#575E75" opacity="0.5" cx="0.5" cy="11.5" r="1"></circle>
                <circle id="Oval-Copy-5" fill="#575E75" opacity="0.5" cx="0.5" cy="13.5" r="1"></circle>
                <circle id="Oval-Copy-6" fill="#575E75" opacity="0.5" cx="0.5" cy="15.5" r="1"></circle>
                <circle id="Oval-Copy-7" fill="#575E75" opacity="0.5" cx="2.5" cy="15.5" r="1"></circle>
                <circle id="Oval-Copy-8" fill="#575E75" opacity="0.5" cx="4.5" cy="15.5" r="1"></circle>
                <circle id="Oval-Copy-9" fill="#575E75" opacity="0.5" cx="6.5" cy="15.5" r="1"></circle>
                <circle id="Oval-Copy-10" fill="#575E75" opacity="0.5" cx="8.5" cy="15.5" r="1"></circle>
                <circle id="Oval-Copy-11" fill="#575E75" opacity="0.5" cx="10.5" cy="15.5" r="1"></circle>
                <path d="M11,0 L14,3 L11.9989566,3 C11.4472481,3 11,2.55733967 11,2.00104344 L11,0 Z" id="Rectangle-5" fill="#4C97FF"></path>
                <path d="M9.8115942,9.1884058 L8.6884058,9.1884058 L8.6884058,10.3115942 C8.6884058,10.6859903 8.38647343,11 8,11 C7.61352657,11 7.3115942,10.6859903 7.3115942,10.3115942 L7.3115942,9.1884058 L6.1884058,9.1884058 C5.81400966,9.1884058 5.5,8.88647343 5.5,8.5 C5.5,8.11352657 5.81400966,7.8115942 6.1884058,7.8115942 L7.3115942,7.8115942 L7.3115942,6.6884058 C7.3115942,6.31280193 7.61352657,6 8,6 C8.38647343,6 8.6884058,6.31280193 8.6884058,6.6884058 L8.6884058,7.8115942 L9.8115942,7.8115942 C10.1859903,7.8115942 10.5,8.11352657 10.5,8.5 C10.5,8.88647343 10.1859903,9.1884058 9.8115942,9.1884058 Z" id="Fill-1" stroke="#FFFFFF" stroke-width="0.25" fill="#FFFFFF"></path>
            </g>
        </g>
    </g>
</svg>