<?xml version="1.0"?>
<svg xmlns="http://www.w3.org/2000/svg" xmlns:xlink="http://www.w3.org/1999/xlink" version="1.1" id="Layer_1" x="0px" y="0px" viewBox="0 0 443 443" style="enable-background:new 0 0 443 443;" xml:space="preserve" width="20px" height="20px" class=""><g><g>
	<rect x="61.785" y="128" width="60" height="290" data-original="#000000" class="active-path" data-old_color="#4c97ff" fill="#4c97ff"/>
	<path d="M211.785,250.65V128h-60v290h44.172c-14.861-21.067-23.602-46.746-23.602-74.43   C172.356,307.145,187.486,274.193,211.785,250.65z" data-original="#000000" class="active-path" data-old_color="#4c97ff" fill="#4c97ff"/>
	<path d="M301.785,214.141l0-86.141h-60v100.918C259.731,219.488,280.144,214.141,301.785,214.141z" data-original="#000000" class="active-path" data-old_color="#4c97ff" fill="#4c97ff"/>
	<path d="M321.785,38h-83.384V0H125.169v38H41.785v60h280V38z M155.169,30h53.232v8h-53.232V30z" data-original="#000000" class="active-path" data-old_color="#4c97ff" fill="#4c97ff"/>
	<path d="M301.785,244.141c-54.826,0-99.429,44.604-99.429,99.429S246.959,443,301.785,443s99.43-44.604,99.43-99.43   S356.611,244.141,301.785,244.141z M355.961,376.533l-21.213,21.213l-32.963-32.963l-32.963,32.963l-21.213-21.213l32.963-32.963   l-32.963-32.963l21.213-21.213l32.963,32.963l32.963-32.963l21.213,21.213l-32.963,32.963L355.961,376.533z" data-original="#000000" class="active-path" data-old_color="#4c97ff" fill="#4c97ff"/>
</g></g> </svg>
